<?xml version="1.0" encoding="utf-8"?>
<!-- Generator: Adobe Illustrator 16.0.0, SVG Export Plug-In . SVG Version: 6.00 Build 0)  -->
<!DOCTYPE svg PUBLIC "-//W3C//DTD SVG 1.1//EN" "http://www.w3.org/Graphics/SVG/1.1/DTD/svg11.dtd">
<svg version="1.1" id="Layer_1" xmlns="http://www.w3.org/2000/svg" xmlns:xlink="http://www.w3.org/1999/xlink" x="0px" y="0px"
	 width="299.637px" height="68.277px" viewBox="0 0 299.637 68.277" enable-background="new 0 0 299.637 68.277"
	 xml:space="preserve">
<g>
	<path fill="#F8003C" d="M291.397,56.464c-3.481,0-6.055-0.982-8.645-3.305c17.895-11.377,9.837-39.074-11.369-39.074
		c-21.204,0-29.262,27.697-11.367,39.074c-8.744,7.838-22.566,0.927-21.545-10.771c-0.015,0.002-0.033,0.003-0.046,0.004
		c0-14.143,0-28.29,0-42.433c-3.928,0-7.849,0-11.774,0c0,14.519,0,29.039,0,43.556c0,19.373,21.269,31.217,37.738,21.017
		c2.33-1.443,4.663-2.887,6.994-4.332c2.333,1.445,4.664,2.889,6.996,4.332c4.122,2.556,8.169,3.706,13.018,3.706
		c2.745,0,5.492,0,8.24,0c0-3.925,0-7.849,0-11.774C296.889,56.464,294.142,56.464,291.397,56.464z M276.341,43.282
		c-1.651,1.025-3.304,2.049-4.958,3.074c-1.652-1.025-3.305-2.049-4.959-3.074c-8.061-4.992-4.521-17.423,4.959-17.423
		C280.866,25.858,284.405,38.29,276.341,43.282z"/>
	<path fill="#F8003C" d="M94.331,43.554c0,7.153-5.8,12.951-12.95,12.951c-7.153,0-12.95-5.798-12.95-12.951
		c0-8.24,0-16.479,0-24.721c-3.923,0-7.848,0-11.77,0c0,8.242,0,16.481,0,24.721c0,13.655,11.069,24.723,24.72,24.723
		c13.655,0,24.723-11.067,24.723-24.723c0-8.24,0-16.479,0-24.721c-3.926,0-7.85,0-11.773,0
		C94.331,27.075,94.331,35.314,94.331,43.554z"/>
	<path fill="#F8003C" d="M24.723-0.002c-8.241,0-16.482,0-24.723,0c0,22.759,0,45.519,0,68.279c3.926,0,7.848,0,11.771,0
		c0-6.28,0-12.557,0-18.835c4.317,0,8.635,0,12.952,0c13.651,0,24.718-11.07,24.718-24.721C49.441,11.065,38.375-0.002,24.723-0.002
		z M24.723,37.667c-4.317,0-8.634,0-12.952,0c0-8.63,0-17.265,0-25.896c4.317,0,8.635,0,12.952,0c7.15,0,12.948,5.795,12.948,12.95
		C37.671,31.871,31.873,37.667,24.723,37.667z"/>
	<path fill="#F8003C" d="M194.709,18.833c-4.316,0-8.634,0-12.949,0c0-6.277,0-12.556,0-18.833c-3.925,0-7.849,0-11.774,0
		c0,22.757,0,45.519,0,68.277c8.243,0,16.48,0,24.724,0c13.65,0,24.721-11.067,24.721-24.723
		C219.43,29.903,208.36,18.833,194.709,18.833z M194.709,56.505c-4.316,0-8.634,0-12.949,0c0-8.634,0-17.266,0-25.9
		c4.315,0,8.633,0,12.949,0c7.15,0,12.948,5.798,12.948,12.949C207.658,50.708,201.86,56.505,194.709,56.505z"/>
	<path fill="#F8003C" d="M138.047,18.833c-4.316,0-8.634,0-12.95,0c0-6.277,0-12.556,0-18.833c-3.926,0-7.849,0-11.773,0
		c0,22.757,0,45.519,0,68.277c8.241,0,16.482,0,24.723,0c13.653,0,24.72-11.067,24.72-24.723
		C162.767,29.903,151.7,18.833,138.047,18.833z M138.047,56.505c-4.316,0-8.634,0-12.95,0c0-8.634,0-17.266,0-25.9
		c4.315,0,8.634,0,12.95,0c7.149,0,12.95,5.798,12.95,12.949C150.997,50.708,145.196,56.505,138.047,56.505z"/>
</g>
</svg>
